<?xml version="1.0" encoding="UTF-8" standalone="no"?>
<!-- Generator: Adobe Illustrator 19.2.1, SVG Export Plug-In . SVG Version: 6.00 Build 0)  -->

<svg
   xmlns:dc="http://purl.org/dc/elements/1.1/"
   xmlns:cc="http://creativecommons.org/ns#"
   xmlns:rdf="http://www.w3.org/1999/02/22-rdf-syntax-ns#"
   xmlns:svg="http://www.w3.org/2000/svg"
   xmlns="http://www.w3.org/2000/svg"
   xmlns:sodipodi="http://sodipodi.sourceforge.net/DTD/sodipodi-0.dtd"
   xmlns:inkscape="http://www.inkscape.org/namespaces/inkscape"
   version="1.1"
   id="Layer_1"
   x="0px"
   y="0px"
   viewBox="0 0 100 107"
   xml:space="preserve"
   inkscape:version="0.91 r13725"
   sodipodi:docname="ddd.svg"
   width="100"
   height="107"><title
     id="title4201">CorelDraw logo</title><metadata
     id="metadata73"><rdf:RDF><cc:Work
         rdf:about=""><dc:format>image/svg+xml</dc:format><dc:type
           rdf:resource="http://purl.org/dc/dcmitype/StillImage" /><dc:title>CorelDraw logo</dc:title><cc:license
           rdf:resource="http://scripts.sil.org/OFL" /></cc:Work><cc:License
         rdf:about="http://scripts.sil.org/OFL"><cc:permits
           rdf:resource="http://scripts.sil.org/pub/OFL/Reproduction" /><cc:permits
           rdf:resource="http://scripts.sil.org/pub/OFL/Distribution" /><cc:permits
           rdf:resource="http://scripts.sil.org/pub/OFL/Embedding" /><cc:permits
           rdf:resource="http://scripts.sil.org/pub/OFL/DerivativeWorks" /><cc:requires
           rdf:resource="http://scripts.sil.org/pub/OFL/Notice" /><cc:requires
           rdf:resource="http://scripts.sil.org/pub/OFL/Attribution" /><cc:requires
           rdf:resource="http://scripts.sil.org/pub/OFL/ShareAlike" /><cc:requires
           rdf:resource="http://scripts.sil.org/pub/OFL/DerivativeRenaming" /><cc:requires
           rdf:resource="http://scripts.sil.org/pub/OFL/BundlingWhenSelling" /></cc:License></rdf:RDF></metadata><defs
     id="defs71" /><sodipodi:namedview
     pagecolor="#ffffff"
     bordercolor="#666666"
     borderopacity="1"
     objecttolerance="10"
     gridtolerance="10"
     guidetolerance="10"
     inkscape:pageopacity="0"
     inkscape:pageshadow="2"
     inkscape:window-width="1366"
     inkscape:window-height="705"
     id="namedview69"
     showgrid="false"
     inkscape:showpageshadow="false"
     inkscape:zoom="1"
     inkscape:cx="62.41095"
     inkscape:cy="26.360054"
     inkscape:window-x="-8"
     inkscape:window-y="-8"
     inkscape:window-maximized="1"
     inkscape:current-layer="Layer_1"><inkscape:grid
       type="xygrid"
       id="grid3373" /></sodipodi:namedview><style
     type="text/css"
     id="style3">
	.st0{fill:#979797;}
	.st1{fill:#61A706;}
	.st2{fill-rule:evenodd;clip-rule:evenodd;fill:#61A706;}
	.st3{fill-rule:evenodd;clip-rule:evenodd;fill:#979797;}
</style><g
     id="g5"
     transform="matrix(0.05080083,0,0,0.04622789,0.78383621,0.93484064)"><path
       style="fill:#979797"
       d="m 6.0195312,62.763672 c -0.8382476,0 -1.6061478,0.220679 -2.3046874,0.662109 -0.6985397,0.44143 -1.2329653,1.086423 -1.6132813,1.9375 -0.3764353,0.851077 -0.5683594,1.847626 -0.5683594,2.988281 0,1.045307 0.1721127,2.022858 0.5058594,2.9375 0.3337467,0.911112 0.8186818,1.607615 1.4628906,2.087891 C 4.1461619,73.86076 4.9754751,74.099609 6,74.099609 c 0.9895979,0 1.8287022,-0.312435 2.5117188,-0.9375 C 9.1986161,72.537044 9.6716541,71.627595 9.9355469,70.4375 L 8.6738281,70.070312 c -0.1746349,0.925238 -0.5032352,1.619038 -0.9960937,2.078126 -0.485097,0.46615 -1.078855,0.701171 -1.7851563,0.701171 -0.5782356,0 -1.1145888,-0.169544 -1.6113281,-0.515625 C 3.7845107,71.987903 3.4203211,71.469131 3.1835938,70.773438 2.9468664,70.077744 2.8300781,69.266285 2.8300781,68.333984 c 0,-0.720413 0.1009086,-1.4239 0.2988281,-2.105468 0.1979196,-0.678037 0.5442254,-1.222416 1.0332032,-1.625 C 4.6549679,64.200931 5.2626016,64 5.9921875,64 c 0.6364473,0 1.1648606,0.18509 1.5839844,0.548828 0.4191238,0.363738 0.7377801,0.945661 0.9589843,1.740234 L 9.7734375,65.953125 C 9.5211871,64.943133 9.0660583,64.15953 8.4179688,63.601562 7.7737599,63.043595 6.9703214,62.763672 6.0195312,62.763672 Z m 40.8808598,0.1875 0,10.96289 1.917968,0 0,-4.580078 0.390625,0 c 0.44629,0 0.768929,0.04182 0.97461,0.123047 0.2018,0.08122 0.395728,0.236129 0.578125,0.455078 0.182396,0.222481 0.524719,0.756345 1.017578,1.607422 l 1.376953,2.394531 2.296875,0 -1.160156,-2.140624 c -0.457932,-0.851078 -0.81819,-1.443811 -1.089844,-1.779297 -0.267774,-0.335487 -0.610148,-0.638985 -1.025391,-0.917969 0.834367,-0.141258 1.459783,-0.476893 1.878907,-1.013672 0.419123,-0.533247 0.628906,-1.216237 0.628906,-2.039062 0,-0.646254 -0.140481,-1.221567 -0.416016,-1.726563 -0.275535,-0.501464 -0.643656,-0.851067 -1.105469,-1.048828 -0.457931,-0.197761 -1.200033,-0.296875 -2.216796,-0.296875 l -4.046875,0 z m 12.322265,0 -3.695312,10.964844 2.037109,0 0.791016,-2.496094 3.820312,0 0.822266,2.496094 2.076172,0 -3.814453,-10.964844 -2.03711,0 z m -28.691406,0.0039 0,10.960938 1.171875,0 0,-10.960938 -1.171875,0 z m 6.771484,0 0,10.96875 3.609375,0 c 0.706302,0 1.272308,-0.07704 1.695313,-0.232422 0.562712,-0.208355 1.013909,-0.50262 1.347656,-0.876953 0.442409,-0.494401 0.778898,-1.139394 1.015625,-1.9375 0.194039,-0.653316 0.291016,-1.429936 0.291016,-2.333984 0,-1.027649 -0.102913,-1.894525 -0.308594,-2.59375 -0.209562,-0.702757 -0.508483,-1.291584 -0.908203,-1.775391 -0.395839,-0.483807 -0.878643,-0.822599 -1.433594,-1.009766 -0.415243,-0.137726 -1.016915,-0.208984 -1.808594,-0.208984 l -3.5,0 z m 27.13086,0 2.240234,10.960938 2.109375,0 1.890625,-8.195313 1.878906,8.195313 2.056641,0 2.292969,-10.960938 -1.931641,0 -1.453125,7.65625 -1.660156,-7.65625 -2.289063,0 -1.738281,7.529297 -1.414062,-7.529297 -1.982422,0 z m -25.205078,1.847656 0.857422,0 c 0.780035,0 1.304492,0.03837 1.572265,0.105469 0.357032,0.08829 0.651919,0.261361 0.884766,0.515625 0.232846,0.257795 0.414903,0.606944 0.542969,1.0625 0.128065,0.455556 0.193359,1.101673 0.193359,1.949219 0,0.847545 -0.06141,1.518895 -0.193359,2.009765 -0.128066,0.490871 -0.296272,0.841223 -0.501954,1.056641 -0.2018,0.211887 -0.461022,0.366792 -0.771484,0.455078 -0.236727,0.07063 -0.620703,0.105469 -1.15625,0.105469 l -1.427734,0 0,-7.255859 0,-0.0039 z m 9.599609,0.0039 1.501953,0 c 0.776155,0 1.243232,0.01239 1.402344,0.03711 0.310462,0.0565 0.549949,0.201722 0.720703,0.427734 0.170754,0.229544 0.255859,0.525684 0.255859,0.896485 0,0.328424 -0.06141,0.605269 -0.193359,0.824219 -0.128066,0.22248 -0.310097,0.376557 -0.539063,0.464843 -0.232846,0.08829 -0.806818,0.134766 -1.726562,0.134766 l -1.421875,0 0,-2.785156 z m 11.398437,0.705078 1.324219,4.058593 -2.609375,0 1.285156,-4.058593 z m -38.951171,0.287109 c -0.275535,0 -0.522988,0.09138 -0.751953,0.271484 -0.228966,0.180104 -0.478321,0.550204 -0.746094,1.115235 l 0,-1.21875 -1.050782,0 0,7.947265 1.179688,0 0,-4.154296 c 0,-0.568562 0.06141,-1.089662 0.193359,-1.566407 0.08538,-0.314298 0.229841,-0.559756 0.431641,-0.736328 0.2018,-0.176572 0.425509,-0.263672 0.681641,-0.263672 0.283296,0 0.566312,0.09176 0.849609,0.275391 l 0.416016,-1.244141 C 22.071034,65.938563 21.67123,65.798828 21.275391,65.798828 Z m 4.714843,0 c -0.95079,0 -1.722673,0.367398 -2.320312,1.105469 -0.593759,0.734539 -0.892578,1.772163 -0.892578,3.103515 0,1.288976 0.294887,2.292509 0.884765,3.00586 0.589878,0.716882 1.389411,1.072266 2.394532,1.072266 0.80332,0 1.45844,-0.224961 1.970703,-0.669922 0.516143,-0.444962 0.866482,-1.078019 1.05664,-1.886719 L 27.873047,71.34569 c -0.178516,0.572093 -0.41993,0.989877 -0.71875,1.244141 -0.302701,0.261326 -0.666865,0.390625 -1.09375,0.390625 -0.574355,0 -1.055256,-0.232694 -1.439453,-0.695313 -0.388078,-0.462618 -0.601843,-1.133219 -0.644532,-2.001953 l 5.134766,0 c 0.0039,-0.158915 0.0078,-0.27973 0.0078,-0.357422 0,-1.310164 -0.290931,-2.32293 -0.873047,-3.046875 -0.585997,-0.720414 -1.336116,-1.080078 -2.25586,-1.080078 z m -11.84375,0.002 c -0.85377,0 -1.580044,0.294641 -2.169922,0.88086 -0.714062,0.709819 -1.066406,1.792639 -1.066406,3.261718 0,1.338416 0.294939,2.363196 0.892578,3.080079 0.593759,0.71335 1.373531,1.066406 2.339844,1.066406 0.60152,0 1.155681,-0.159483 1.664063,-0.484375 0.512262,-0.324893 0.902122,-0.780594 1.166015,-1.363281 0.267774,-0.58622 0.398438,-1.387617 0.398438,-2.408204 0,-1.260724 -0.298871,-2.245633 -0.900391,-2.958984 -0.60152,-0.716882 -1.377309,-1.074219 -2.324219,-1.074219 z m 11.851563,1.103516 c 0.589878,0 1.074686,0.256269 1.443359,0.775391 0.244489,0.335486 0.39291,0.838417 0.44336,1.505859 l -3.841797,0 c 0.04269,-0.692162 0.244556,-1.246978 0.605469,-1.660156 0.364792,-0.413179 0.814062,-0.621094 1.349609,-0.621094 z m -11.855469,0.01758 c 0.578236,0 1.059188,0.252817 1.447266,0.757813 0.388077,0.501464 0.582031,1.242869 0.582031,2.224609 0,1.038243 -0.193928,1.811785 -0.578125,2.320312 -0.388078,0.504996 -0.869055,0.759766 -1.451172,0.759766 -0.585997,0 -1.070907,-0.25477 -1.458984,-0.759766 -0.384197,-0.501464 -0.578125,-1.260289 -0.578125,-2.277343 0,-1.013524 0.190047,-1.771973 0.578125,-2.273438 0.388077,-0.501464 0.872987,-0.751953 1.458984,-0.751953 z"
       transform="matrix(25.768042,0,0,28.31706,-39.329016,-60.808529)"
       id="path7"
       inkscape:connector-curvature="0" /><path
       style="fill:#979797"
       d="m 937.37172,2077.0194 c -11.59999,0 -22.01116,3.302 -30.91115,9.802 -9.00001,6.5 -15.76899,16.4552 -20.569,29.9552 -4.70002,13.5 -7.11264,28.0174 -7.11264,43.5174 0,15.7 2.38955,29.888 7.18953,42.5879 4.8,12.6999 11.89949,22.4103 21.29948,29.1101 9.4,6.8001 19.91097,10.0978 31.41098,10.0978 8.5,0 16.81347,-1.9685 24.91347,-6.1685 8.10001,-4.1999 16.0063,-10.4167 23.60627,-18.7167 l 0,-59.2343 -49.6347,0 0,18.7166 34.33292,0 0,29.9131 c -3.29998,4.0999 -8.09441,7.8074 -14.49441,11.4074 -6.29999,3.5001 -12.94628,5.2812 -19.64627,5.2812 -7.70001,0 -14.97617,-2.4134 -21.8762,-7.0135 -6.89998,-4.7 -12.08624,-11.7784 -15.68624,-21.3784 -3.60002,-9.6001 -5.42099,-21.4857 -5.42099,-35.7858 0,-11.5999 1.4984,-22.2943 4.49825,-32.1943 1.79997,-5.7 4.1818,-11.0438 7.38177,-15.8438 3.20001,-4.8 7.33362,-8.7187 12.53363,-11.6187 5.2,-2.9 11.27754,-4.3517 18.37754,-4.3517 5.9,0 11.30918,1.4251 16.10917,4.2249 4.89999,2.7001 8.62645,6.5118 11.22645,11.1118 2.50001,4.7 4.69748,11.0814 6.49749,19.1815 l 13.99459,-5.1968 c -2.10008,-10.8 -5.01964,-19.5372 -8.91962,-26.2372 -3.89999,-6.6 -9.30917,-11.7902 -16.10918,-15.5902 -6.90001,-3.7 -14.49114,-5.577 -22.99114,-5.577 z m 686.42768,0 c -7.9,0 -15.0917,1.8926 -21.4917,5.4925 -6.5,3.7 -11.2867,8.9704 -14.6867,15.9705 -3.3,7 -5.0365,14.5037 -5.0365,22.6037 0,7.3 1.3139,14.0419 4.1138,19.9419 2.8,5.9 6.8952,10.8719 12.4952,14.8721 4.3,3.1998 11.8066,6.5132 22.6067,10.0132 10.7999,3.6 17.7765,6.174 20.8765,7.7739 5,2.6002 8.5113,5.7217 10.6113,9.4218 2.1001,3.7999 3.2295,8.0975 3.2295,13.0975 0,4.8999 -1.1448,9.5313 -3.3448,13.7311 -2.2001,4.2001 -5.6116,7.4866 -10.1115,9.8865 -4.6,2.4002 -9.7863,3.5913 -15.6863,3.5913 -6.7,0 -12.6546,-1.6159 -17.9546,-4.8166 -5.3,-3.2 -9.3416,-7.4059 -11.8416,-12.5058 -2.5,-5.2001 -4.0674,-11.773 -4.7674,-19.773 l -14.6097,1.7739 c 0.201,10.7 2.2744,20.1876 6.5744,28.6876 4,8.5001 9.6396,14.8123 16.8396,19.0126 7.1,4.1998 15.9667,6.2951 26.5667,6.2951 8.4,0 15.9067,-1.9685 22.6067,-6.1686 6.7,-4.1998 11.7787,-10.0335 15.3787,-17.5335 3.5,-7.5001 5.344,-15.4981 5.344,-23.9981 0,-8.4999 -1.7212,-16.0613 -4.9211,-22.5615 -3.3,-6.5 -8.3096,-11.924 -15.1096,-16.224 -4.6,-2.9 -13.2746,-6.3243 -25.8746,-10.2244 -12.6,-3.9 -20.4141,-7.7074 -23.4141,-11.4075 -3.1,-3.7999 -4.6136,-8.4537 -4.6136,-14.1537 0,-6.7 2.0821,-12.3267 6.3822,-17.0267 4.3,-4.7 11.1305,-6.9712 20.5305,-6.9712 9,0 15.7768,2.4894 20.3768,7.6895 4.6,5.0999 7.3122,12.6727 8.1122,22.7727 l 14.9174,-1.6056 c -0.3,-9.3993 -2.2055,-17.8225 -5.8055,-25.2225 -3.6,-7.4 -8.7018,-12.931 -15.3018,-16.731 -6.7,-3.8 -14.2911,-5.7037 -22.9911,-5.7037 z m -378.9309,2.6617 0,159.7047 0,0.1298 14.4176,0 0,-63.2057 c 0,-9.1002 0.7838,-16.1942 2.3837,-21.2941 1.5999,-5.2001 4.3353,-9.2948 8.0353,-12.2947 3.8,-3 7.757,-4.5208 11.957,-4.5208 5.5999,0 10.0487,2.1754 13.1487,6.6755 3.0001,4.5001 4.5752,11.6207 4.5752,21.4206 l 0,73.2192 14.3791,0 0,-73.3459 c 0,-11.2999 -0.9605,-19.9568 -2.9604,-25.8569 -2.0001,-6.003 -5.3193,-10.63 -9.9193,-14.03 -4.6,-3.4 -10.1014,-5.07 -16.3014,-5.07 -10.2,0 -18.5979,5.2705 -25.2979,15.9705 l 0,-57.5022 -14.4176,0 z m 91.0034,0 0,22.3502 14.456,0 0,-22.3502 -14.456,0 z m 445.7897,0 0,22.3502 14.4175,0 0,-22.3502 -14.4175,0 z m 54.7481,3.549 -14.3791,11.7455 0,28.5187 -10.5728,0 0,15.21 10.5728,0 0,66.6703 c 0,11.8002 0.4918,19.5375 1.6917,23.2374 1.2,3.7002 3.1745,6.6149 6.0746,8.9148 2.9,2.3001 6.9493,3.38 12.1492,3.38 3.1,0 6.7651,-0.5322 10.7651,-1.7327 l -1.9608,-17.2379 c -2.6,0.4997 -4.7515,0.7333 -6.1515,0.6338 -2.1001,0 -3.7827,-0.4521 -4.8827,-1.352 -1.2,-0.8999 -1.9991,-2.2447 -2.4991,-3.8448 -0.6,-1.6008 -0.8074,-5.1738 -0.8074,-10.7736 l 0,-67.8112 14.4559,0 0,-15.21 -14.4559,0 0,-40.3487 z m -797.0388,37.9827 c -3.3,0 -6.3888,1.2869 -9.1888,3.887 -2.8,2.6001 -5.9272,7.9817 -9.2272,16.1817 l 0,-17.7027 -12.8797,0 0,115.807 0,0.1298 14.4176,0 0,-60.5017 c 0,-8.3002 0.7838,-15.8995 2.3837,-22.8996 0.9999,-4.6001 2.8056,-8.1315 5.3056,-10.7315 2.5,-2.6001 5.2814,-3.887 8.3814,-3.887 3.5,0 7.0344,1.3139 10.5344,4.0138 l 5.0749,-18.083 c -5,-4.103 -9.9019,-6.2138 -14.8019,-6.2138 z m 152.0952,0 c -5.5,0 -10.1715,1.4515 -14.0715,4.3518 -3.9,2.8999 -7.4344,7.3242 -10.5344,13.2242 l 0,-15.21 -13.0719,0 0,160.2116 14.3022,0 0,-56.488 c 2.5,4.1999 5.581,7.5935 9.381,10.3936 3.8,2.6998 8.0796,4.0981 12.8796,4.0981 6.5,0 12.8236,-2.4781 18.7236,-7.4781 5.9999,-5 10.5101,-12.3588 13.6101,-21.7588 3.1,-9.5001 4.7289,-20.0565 4.7289,-31.8565 0,-11.0001 -1.4291,-21.1199 -4.2291,-30.4199 -2.8,-9.3 -6.9952,-16.4053 -12.4952,-21.5053 -5.6,-5.1 -11.9233,-7.5627 -19.2233,-7.5627 z m 215.3016,0 c -7.3,0 -13.9845,2.2714 -20.1846,6.9713 -6.2999,4.6 -10.8792,11.6982 -13.8792,20.9982 -3.1,9.3999 -4.6136,20.3282 -4.6136,32.8282 0,19.3001 3.5113,34.1045 10.6113,44.4046 7.1,10.3001 16.3892,15.4634 27.9892,15.4634 9.2,0 16.9756,-3.6539 23.3756,-11.1539 6.3,-7.5 10.2416,-17.8537 11.8416,-31.0537 l -14.1484,-2.704 c -1,9.8001 -3.3742,17.1433 -7.0742,21.8433 -3.8,4.7999 -8.5253,7.0979 -14.2253,7.0979 -7,0 -12.7088,-3.6048 -17.1088,-10.6047 -4.3,-7.0001 -6.459,-18.3 -6.459,-33.7999 0,-15.3001 2.2667,-26.4888 6.7666,-33.5886 4.5,-7.1001 10.4239,-10.6049 17.7239,-10.6049 4.8,0 8.8645,2.0151 12.2645,5.915 3.4,3.9001 5.8511,9.6914 7.1511,17.4915 l 13.9177,-2.9152 c -1.6999,-11.7 -5.4418,-20.6823 -11.3418,-27.0823 -5.8,-6.3 -13.4066,-9.5062 -22.6066,-9.5062 z m 75.3171,0 c -4.4,0 -8.4799,0.6814 -12.3799,2.2815 -3.8,1.5999 -6.9118,3.4615 -9.1118,5.6615 -3,2.9 -5.4127,6.585 -7.1127,10.985 -1.7,4.4 -2.6143,9.0382 -2.6143,14.2381 0,5.7001 1.1295,10.9058 3.2295,15.5058 2.1001,4.7 5.0887,8.2851 9.1887,10.985 4.1,2.7001 11.4147,5.8218 21.9147,9.4218 7.8,2.8 12.6866,4.8754 14.6866,6.6754 2.9,2.5002 4.2676,5.9935 4.2676,10.3935 0,4.9 -1.5673,9.3707 -4.7674,12.9707 -3.3,3.6999 -8.202,5.4502 -14.802,5.4502 -6.5,0 -11.6018,-2.068 -15.3018,-6.1684 -3.7,-4.2 -5.8897,-10.114 -6.6897,-17.914 l -14.1868,3.0842 c 1.5999,12.3002 5.2879,21.5005 11.1879,27.8006 5.7001,6.1999 14.1827,9.2948 25.1826,9.2948 6.6001,0 12.6162,-1.4904 17.9162,-4.6896 5.3,-3.2 9.3107,-7.5932 12.1107,-13.3932 2.8,-5.8 4.1907,-11.9209 4.1907,-18.4211 0,-6.6999 -1.1986,-12.3153 -3.4986,-16.8154 -2.3001,-4.4999 -5.5348,-7.9666 -9.5348,-10.2668 -4.1,-2.4 -11.161,-5.3837 -21.261,-9.0837 -7.1,-2.6001 -11.2875,-4.3277 -12.6875,-5.0277 -2.5,-1.3996 -4.3363,-3.0968 -5.5363,-5.1968 -1.1,-2.1005 -1.6531,-4.3444 -1.6531,-6.8444 0,-3.9 1.3523,-7.478 4.1523,-10.478 2.7999,-3 7.5099,-4.4785 14.1099,-4.4785 5.6,0 9.9334,1.7124 13.0334,5.1122 3,3.3999 4.8979,8.0692 5.4979,14.0693 l 14.0715,-2.704 c -0.9002,-7.5001 -2.4826,-13.4562 -4.8827,-17.9563 -2.4002,-4.3999 -6.2266,-8.0047 -11.2266,-10.6047 -5,-2.6001 -10.7932,-3.887 -17.4932,-3.887 z m 417.5313,0 c -11.7,0 -21.2658,5.3972 -28.5659,16.0972 -7.2999,10.7001 -11.0342,25.7652 -11.0342,45.1652 0,18.8001 3.6189,33.4131 10.9189,43.8131 7.3,10.4 17.0886,15.5902 29.4886,15.5902 9.9,0 17.9983,-3.2597 24.2983,-9.7597 6.3,-6.5 10.695,-15.7046 12.995,-27.5046 l -14.8789,-2.704 c -2.2,8.3999 -5.135,14.3675 -9.035,18.1674 -3.7,3.8001 -8.1947,5.7037 -13.4948,5.7037 -7.1,0 -12.9853,-3.3977 -17.6854,-10.0976 -4.6999,-6.7001 -7.4201,-16.4102 -7.9201,-29.1103 l 63.3218,0 c 0.1004,-2.3 0.077,-3.9968 0.077,-5.1967 0,-19.0999 -3.565,-33.8624 -10.765,-44.3624 -7.0999,-10.6 -16.42,-15.8015 -27.72,-15.8015 z m -800.8451,0.1276 c -7.3,0 -13.7618,1.3559 -19.2618,4.056 -5.6,2.8 -9.9027,6.6033 -12.8027,11.7033 -2.9,4.9999 -5.0437,11.6997 -6.3437,19.8997 l 14.1484,2.704 c 1.5999,-8.2 3.9895,-13.9958 7.1895,-17.1957 3.2,-3.3001 8.1942,-4.9433 14.9942,-4.9433 7.2,0 12.6783,2.2332 16.3783,6.6333 2.7,3.2 4.1138,8.7732 4.1138,16.7731 0,0.7009 0.024,2.4546 -0.077,5.1545 -5.5,2.6002 -14.1208,4.7755 -25.7208,6.6756 -5.7,0.8999 -10.0028,1.8734 -12.8028,2.873 -3.9,1.3996 -7.319,3.622 -10.419,6.4219 -3.0001,2.8 -5.4818,6.4963 -7.3818,11.1962 -1.8,4.7 -2.7682,9.9057 -2.7682,15.5058 0,9.6001 2.4972,17.5022 7.4971,23.7022 5,6.1999 12.1918,9.295 21.4918,9.295 5.7,0 10.9784,-1.1595 15.8784,-3.7603 4.9001,-2.5 10.1172,-6.9397 15.4172,-13.1397 0.4,5.6001 1.2529,10.4184 2.6528,14.6185 l 15.1096,0 c -1.7,-4.5001 -2.8603,-9.0848 -3.4602,-13.9847 -0.6002,-4.8001 -0.9227,-16.3182 -0.9227,-34.5183 l 0,-25.9837 c 0,-8.6 -0.1909,-14.7406 -0.6921,-18.0406 -0.9,-5.4001 -2.3982,-9.8933 -4.4983,-13.3933 -2.1,-3.6 -5.4961,-6.488 -9.9961,-8.7879 -4.5,-2.3 -10.424,-3.4646 -17.7239,-3.4646 z m 237.1009,2.2393 0,115.807 14.456,0 0,-115.807 -14.456,0 z m 445.7897,0 0,115.807 14.4175,0 0,-115.807 -14.4175,0 z m -91.4648,0.212 0,71.5712 c 10e-5,8.3001 0.2841,14.4365 0.8843,18.3365 0.8002,5.7 2.3214,10.5339 4.4214,14.5343 2.1001,3.8996 5.3885,7.2019 9.6885,9.8017 4.3,2.6001 8.9947,3.8453 13.9946,3.8446 11.3,0 20.3127,-6.5884 26.9127,-19.6883 l 0,17.1957 0,0.2531 12.7643,0 0,-115.8495 -14.379,0 0,61.8963 c 0,9.9001 -0.7069,17.4458 -2.3068,22.6459 -1.6,5.2001 -4.197,9.2524 -7.9969,12.2525 -3.8001,2.9997 -7.8108,4.4785 -12.1108,4.4785 -4.3,0 -7.9035,-1.4515 -10.8035,-4.3517 -3,-2.9002 -4.9055,-6.9257 -5.8054,-12.126 -0.5998,-3.6 -0.8843,-10.4599 -0.8843,-20.6601 l 0,-64.1354 -14.3791,0 z m -500.1148,12.8017 c 6.2,0 11.4785,3.685 15.8785,10.9849 4.5,7.2999 6.6897,18.3396 6.6897,33.0393 0,15.5002 -2.1667,26.7804 -6.7666,34.1803 -4.6,7.3001 -9.9783,10.9849 -16.3783,10.9849 -6.2,0 -11.5938,-3.547 -15.9939,-10.6468 -4.3999,-7.1001 -6.6512,-18.1127 -6.6512,-32.9128 0,-14.8 2.4357,-26.1267 7.0357,-33.9267 4.7,-7.7999 10.0861,-11.7031 16.1861,-11.7031 z m 709.7263,0.7182 c 7.3,0 13.2393,3.7808 17.8393,11.2806 2.9,4.9003 4.7826,12.1855 5.3826,21.8855 l -47.328,0 c 0.5,-10.1 2.8971,-18.1668 7.4972,-24.1668 4.5,-6 10.0089,-8.9993 16.6089,-8.9993 z m -782.6213,44.0666 -0.077,7.1825 c 0,8.6 -0.7452,15.1194 -2.3452,19.5194 -2.0001,5.7 -5.1964,10.22 -9.4964,13.5199 -4.3,3.3002 -9.3019,4.9012 -14.8019,4.9012 -5.6,0 -9.8643,-1.6959 -12.7643,-5.1969 -3,-3.5 -4.383,-7.7706 -4.383,-12.9707 0,-3.3999 0.6608,-6.495 1.9608,-9.2948 1.4,-2.7001 3.2286,-4.9375 5.7286,-6.3375 2.4,-1.3996 6.672,-2.6869 12.572,-3.8871 10.5,-2.0009 18.4063,-4.536 23.6063,-7.436 z"
       id="path25"
       inkscape:connector-curvature="0" /><polygon
       class="st2"
       points="1143.2,1500.7 1301.2,1500.7 1331.9,1366.9 1110.3,1369.1 1110.3,1369.1 "
       id="polygon57"
       style="clip-rule:evenodd;fill:#61a706;fill-rule:evenodd" /><path
       style="clip-rule:evenodd;fill:#979797;fill-rule:evenodd"
       d="M 45.740234,2.3808594 C 44.851537,2.4197052 45.040838,2.3657847 44.121094,2.5917969 21.573785,8.1185005 35.879021,38.086645 46.310547,47 l 0.873047,0.654297 C 39.976993,36.410192 28.024492,9.3272019 45.740234,2.3808594 Z m 6.658204,0 C 70.11418,9.3272019 58.16556,36.410192 50.955078,47.654297 L 51.828125,47 C 62.259651,38.086645 76.564887,8.1185005 54.017578,2.5917969 53.097834,2.3657847 53.287135,2.4197052 52.398438,2.3808594 Z m -3.513672,0.3125 C 47.155003,2.7951185 45.613114,4.4014314 44.84375,5.75 39.818145,14.560943 43.027131,29.756922 45.375,38.765625 l 0.791016,3.089844 c 0.520024,1.79044 1.110937,3.37944 1.646484,5.353515 l 0.232422,0.65625 0.148437,0.292969 1.478516,0.0078 0.173828,-0.07813 0.212891,-0.458985 C 50.970576,45.492385 53.366542,36.374094 53.863281,34.046875 55.213791,27.73266 56.22528,21.298019 55.732422,14.849609 55.546145,12.412916 55.042256,9.6898882 54.041016,7.4121094 53.276503,5.6640466 52.127353,3.6616824 50.105469,2.8847656 49.693621,2.726513 49.283942,2.6698765 48.884766,2.6933594 Z M 36.845703,4.7597656 C 32.409976,6.6384917 29.002998,10.717684 28.269531,15.142578 l -0.171875,1.878906 0.01953,1.511719 0.232421,1.666016 0.128907,0.794922 c 1.746349,8.747377 9.733633,20.21536 16.761718,26.292968 C 35.522771,35.488568 20.856906,16.823165 36.845703,4.7597656 Z m 24.449219,0 C 77.283719,16.823165 62.617828,35.488568 52.896484,47.287109 59.92457,41.209501 67.909901,29.741518 69.65625,20.994141 l 0.128906,-0.794922 0.232422,-1.666016 0.02344,-1.511719 -0.169922,-1.878906 C 69.137627,10.717684 65.730649,6.6384917 61.294922,4.7597656 Z"
       transform="matrix(25.768042,0,0,28.31706,-39.329016,-60.808529)"
       id="path59"
       inkscape:connector-curvature="0" /></g></svg>