<?xml version="1.0" encoding="utf-8"?>
<!-- Generator: Adobe Illustrator 22.1.0, SVG Export Plug-In . SVG Version: 6.00 Build 0)  -->
<svg version="1.1" id="Layer_1" xmlns="http://www.w3.org/2000/svg" xmlns:xlink="http://www.w3.org/1999/xlink" x="0px" y="0px"
	 viewBox="0 0 512 512" style="enable-background:new 0 0 512 512;" xml:space="preserve">
<g>
	<title>adobe-premiere</title>
	<g>
		<path d="M31,39.5v438.7h450V39.5L31,39.5z M49.7,58.2h412.5v401.2H49.7L49.7,58.2z M149.1,142.1c0-1.3,0.3-2.2,1.9-2.2
			c12-0.6,29.7-0.9,48.2-0.9c52,0,74.6,28.5,74.6,65c0,47.6-34.4,68-76.8,68c-7.1,0-9.6-0.3-14.6-0.3v72.1c0,1.5-0.6,2.1-2.1,2.1
			h-28.9c-1.6,0-2.2-0.6-2.2-2.1L149.1,142.1z M182.3,241.7c4.4,0.3,7.8,0.3,15.2,0.3c21.9,0,42.5-7.7,42.5-37.4
			c0-23.8-14.7-35.9-39.8-35.9c-7.4,0-14.5,0.4-17.9,0.7V241.7z M302.4,224.8c0-2.2,0-7.8-1-18.2c0-1.5,0.2-1.9,1.5-2.5
			c21.9-8.4,45.1-12.8,68.6-13c1.5,0,2.2,0.3,2.2,1.8v27.3c0,1.5-0.5,1.8-2.1,1.8c-11.9-0.7-23.9,0.5-35.5,3.7v118.1
			c0,1.5-0.7,2.1-2.2,2.1h-29.4c-1.5,0-2.1-0.6-2.1-2.1L302.4,224.8z"/>
	</g>
</g>
</svg>
