<svg xmlns="http://www.w3.org/2000/svg" xmlns:xlink="http://www.w3.org/1999/xlink" width="500" zoomAndPan="magnify" viewBox="0 0 375 374.999991" height="500" preserveAspectRatio="xMidYMid meet" version="1.0"><defs><clipPath id="id1"><path d="M 14.351562 25.367188 L 185 25.367188 L 185 327 L 14.351562 327 Z M 14.351562 25.367188 " clip-rule="nonzero"/></clipPath><clipPath id="id2"><path d="M 190 26 L 360.851562 26 L 360.851562 328 L 190 328 Z M 190 26 " clip-rule="nonzero"/></clipPath></defs><g clip-path="url(#id1)"><path fill="#000000" d="M 183.769531 309.167969 C 184.203125 310.714844 184.292969 312.277344 184.035156 313.863281 C 183.777344 315.445312 183.199219 316.902344 182.296875 318.230469 C 181.347656 319.542969 180.160156 320.582031 178.734375 321.347656 C 177.308594 322.113281 175.789062 322.53125 174.171875 322.601562 C 171.394531 322.726562 169.476562 321.636719 166.039062 319.632812 C 161.667969 317.082031 158.28125 315.101562 155.660156 311.21875 C 152.039062 305.878906 153.628906 302.5 149.3125 297.574219 C 148.035156 296.121094 146.574219 294.882812 144.933594 293.863281 C 141.285156 299.203125 124.988281 321.804688 96.976562 325.90625 C 64.53125 330.648438 29.417969 308.652344 14.515625 270.789062 C 30.941406 229.722656 69.667969 207.988281 101.96875 215.605469 C 129.296875 222.0625 143.195312 247.480469 146.03125 252.957031 C 147.296875 244.472656 147.042969 236.035156 145.269531 227.644531 C 144.503906 224.183594 143.496094 220.796875 142.246094 217.480469 C 140.996094 214.164062 139.519531 210.953125 137.8125 207.847656 C 136.105469 204.742188 134.1875 201.773438 132.058594 198.9375 C 129.929688 196.105469 127.609375 193.4375 125.101562 190.933594 C 117.492188 183.40625 115.75 185.121094 110.207031 178.355469 C 100.902344 167.015625 99.113281 154.039062 98.28125 147.421875 C 96.566406 133.84375 99.691406 129.742188 100.097656 112.839844 C 100.335938 102.402344 99.421875 92.066406 97.355469 81.832031 C 101.871094 86.152344 105.679688 91.023438 108.78125 96.449219 C 114.027344 105.703125 117.476562 117.371094 118.527344 121.113281 C 120.847656 129.367188 121.933594 136.125 124.875 136.40625 C 126.179688 136.535156 127.28125 135.34375 127.695312 134.855469 C 131.546875 130.671875 129.65625 122.945312 128.0625 117.140625 C 124.164062 102.96875 121.171875 96.863281 118.789062 89.597656 C 117.328125 85.164062 112.441406 69.789062 115.769531 52.246094 C 116.71875 47.386719 118.191406 42.6875 120.1875 38.152344 C 122.183594 33.621094 124.652344 29.359375 127.597656 25.375 C 129.105469 36 131.578125 46.394531 135.015625 56.558594 C 137.605469 64.226562 142.160156 77.492188 151.546875 92.402344 C 157.035156 101.128906 159.199219 102.515625 161.746094 109.273438 C 165.273438 118.710938 165.160156 126.824219 164.910156 135.984375 C 164.652344 145.605469 163.210938 152.835938 160.335938 166.910156 C 157.554688 180.546875 156.644531 181.707031 155.765625 186.945312 C 150.40625 218.714844 173.902344 235.417969 165.757812 257.996094 C 164.148438 262.449219 160.730469 268.746094 152.441406 274.972656 C 155.625 277.089844 159.644531 280.476562 161.976562 285.742188 C 164.46875 291.339844 163.128906 294.714844 165.101562 298.859375 C 166.9375 302.714844 171.546875 307.097656 183.769531 309.167969 Z M 183.769531 309.167969 " fill-opacity="1" fill-rule="nonzero"/></g><g clip-path="url(#id2)"><path fill="#000000" d="M 191.367188 309.914062 C 190.933594 311.460938 190.84375 313.023438 191.097656 314.605469 C 191.355469 316.1875 191.933594 317.644531 192.832031 318.972656 C 193.78125 320.285156 194.96875 321.324219 196.394531 322.09375 C 197.824219 322.859375 199.34375 323.28125 200.964844 323.347656 C 203.734375 323.46875 205.660156 322.382812 209.089844 320.382812 C 213.460938 317.824219 216.847656 315.847656 219.476562 311.964844 C 223.089844 306.625 221.507812 303.25 225.824219 298.324219 C 227.101562 296.867188 228.566406 295.628906 230.210938 294.609375 C 233.859375 299.941406 250.15625 322.550781 278.167969 326.644531 C 310.609375 331.390625 345.726562 309.394531 360.628906 271.527344 C 344.195312 230.460938 305.476562 208.726562 273.175781 216.355469 C 245.847656 222.800781 231.945312 248.230469 229.109375 253.703125 C 227.847656 245.222656 228.101562 236.78125 229.871094 228.390625 C 230.640625 224.933594 231.648438 221.546875 232.894531 218.230469 C 234.144531 214.914062 235.621094 211.703125 237.328125 208.597656 C 239.035156 205.492188 240.953125 202.523438 243.082031 199.691406 C 245.210938 196.859375 247.527344 194.191406 250.035156 191.6875 C 257.644531 184.152344 259.386719 185.875 264.9375 179.109375 C 274.242188 167.769531 276.03125 154.792969 276.863281 148.175781 C 278.578125 134.597656 275.453125 130.488281 275.042969 113.59375 C 274.8125 103.15625 275.722656 92.820312 277.78125 82.585938 C 273.257812 86.917969 269.445312 91.800781 266.339844 97.238281 C 261.101562 106.492188 257.652344 118.160156 256.601562 121.902344 C 254.28125 130.164062 253.195312 136.921875 250.253906 137.203125 C 248.941406 137.332031 247.851562 136.140625 247.433594 135.652344 C 243.582031 131.46875 245.472656 123.742188 247.066406 117.9375 C 250.96875 103.761719 253.949219 97.652344 256.339844 90.394531 C 257.800781 85.960938 262.6875 70.585938 259.359375 53.042969 C 258.410156 48.179688 256.9375 43.480469 254.941406 38.945312 C 252.941406 34.410156 250.472656 30.148438 247.527344 26.164062 C 246.039062 36.789062 243.585938 47.1875 240.164062 57.355469 C 237.574219 65.03125 233.011719 78.289062 223.632812 93.207031 C 218.144531 101.925781 215.980469 103.320312 213.433594 110.078125 C 209.90625 119.507812 210.019531 127.625 210.265625 136.789062 C 210.527344 146.402344 211.964844 153.636719 214.835938 167.710938 C 217.621094 181.34375 218.53125 182.511719 219.414062 187.746094 C 224.773438 219.519531 201.269531 236.21875 209.421875 258.792969 C 211.027344 263.253906 214.449219 269.546875 222.734375 275.769531 C 219.554688 277.886719 215.535156 281.273438 213.199219 286.539062 C 210.710938 292.140625 212.042969 295.511719 210.070312 299.660156 C 208.222656 303.46875 203.589844 307.800781 191.367188 309.914062 Z M 191.367188 309.914062 " fill-opacity="1" fill-rule="nonzero"/></g></svg>