<svg xmlns="http://www.w3.org/2000/svg" xmlns:xlink="http://www.w3.org/1999/xlink" width="500" zoomAndPan="magnify" viewBox="0 0 375 374.999991" height="500" preserveAspectRatio="xMidYMid meet" version="1.0"><defs><clipPath id="id1"><path d="M 44 124.191406 L 331.617188 124.191406 L 331.617188 337.191406 L 44 337.191406 Z M 44 124.191406 " clip-rule="nonzero"/></clipPath><clipPath id="id2"><path d="M 145.222656 44.539062 L 229.972656 44.539062 L 229.972656 112.789062 L 145.222656 112.789062 Z M 145.222656 44.539062 " clip-rule="nonzero"/></clipPath></defs><g clip-path="url(#id1)"><path fill="#231f20" d="M 329.933594 242.242188 L 308.691406 215.007812 L 307.84375 214.371094 L 306.992188 213.734375 L 240.71875 213.734375 L 240.71875 155.242188 C 240.71875 155.242188 240.71875 155.242188 240.71875 154.605469 C 240.71875 153.96875 240.71875 153.96875 240.71875 153.546875 C 240.582031 153.203125 240.40625 152.886719 240.1875 152.589844 C 240.1875 152.589844 240.1875 152.589844 240.1875 152.0625 L 219.476562 124.933594 L 218.734375 124.191406 L 217.886719 123.660156 L 156.285156 123.660156 C 156.285156 123.660156 155.648438 123.660156 155.433594 123.660156 L 154.585938 124.191406 L 153.734375 124.933594 L 132.492188 152.0625 C 132.492188 152.0625 132.492188 152.0625 132.492188 152.589844 C 132.277344 152.886719 132.097656 153.203125 131.960938 153.546875 C 131.921875 153.898438 131.921875 154.25 131.960938 154.605469 C 131.960938 154.605469 131.960938 154.605469 131.960938 155.242188 L 131.960938 188.832031 L 68.980469 188.832031 C 68.664062 188.789062 68.34375 188.789062 68.023438 188.832031 L 67.175781 188.832031 L 66.324219 189.574219 L 45.085938 216.703125 C 44.867188 217 44.691406 217.316406 44.554688 217.65625 C 44.554688 217.65625 44.554688 218.398438 44.554688 218.714844 C 44.554688 219.035156 44.554688 218.714844 44.554688 219.351562 L 44.554688 331.894531 C 44.554688 332.242188 44.585938 332.585938 44.65625 332.925781 C 44.722656 333.269531 44.824219 333.597656 44.957031 333.921875 C 45.089844 334.242188 45.253906 334.546875 45.449219 334.835938 C 45.640625 335.125 45.863281 335.394531 46.109375 335.640625 C 46.355469 335.886719 46.625 336.105469 46.914062 336.296875 C 47.203125 336.492188 47.507812 336.65625 47.832031 336.789062 C 48.152344 336.921875 48.484375 337.023438 48.828125 337.089844 C 49.167969 337.15625 49.515625 337.191406 49.863281 337.191406 L 325.6875 337.191406 C 326.035156 337.191406 326.378906 337.15625 326.722656 337.089844 C 327.0625 337.023438 327.394531 336.921875 327.71875 336.789062 C 328.039062 336.65625 328.347656 336.492188 328.636719 336.296875 C 328.925781 336.105469 329.195312 335.886719 329.441406 335.640625 C 329.6875 335.394531 329.90625 335.125 330.101562 334.835938 C 330.296875 334.546875 330.457031 334.242188 330.59375 333.921875 C 330.726562 333.597656 330.828125 333.269531 330.894531 332.925781 C 330.960938 332.585938 330.996094 332.242188 330.996094 331.894531 L 330.996094 247.117188 C 331.042969 246.835938 331.042969 246.550781 330.996094 246.269531 C 331.101562 245.554688 331.0625 244.847656 330.878906 244.148438 C 330.695312 243.449219 330.378906 242.8125 329.933594 242.242188 Z M 54.855469 226.558594 L 136.953125 226.558594 C 137.304688 226.558594 137.648438 226.523438 137.992188 226.457031 C 138.332031 226.390625 138.664062 226.289062 138.988281 226.15625 C 139.308594 226.023438 139.613281 225.859375 139.90625 225.664062 C 140.195312 225.472656 140.460938 225.253906 140.710938 225.007812 C 140.957031 224.761719 141.175781 224.492188 141.371094 224.203125 C 141.5625 223.914062 141.726562 223.609375 141.859375 223.289062 C 141.992188 222.964844 142.09375 222.636719 142.164062 222.292969 C 142.230469 221.953125 142.265625 221.609375 142.265625 221.261719 L 142.265625 160.539062 L 230.097656 160.539062 L 230.097656 247.117188 C 230.097656 247.464844 230.132812 247.808594 230.199219 248.152344 C 230.269531 248.492188 230.371094 248.824219 230.503906 249.144531 C 230.636719 249.464844 230.800781 249.769531 230.992188 250.058594 C 231.1875 250.351562 231.40625 250.617188 231.652344 250.863281 C 231.902344 251.109375 232.167969 251.328125 232.457031 251.523438 C 232.75 251.714844 233.054688 251.878906 233.378906 252.011719 C 233.699219 252.144531 234.03125 252.246094 234.375 252.3125 C 234.714844 252.382812 235.0625 252.414062 235.410156 252.414062 L 320.375 252.414062 L 320.375 326.59375 L 54.855469 326.59375 Z M 160.320312 133.410156 L 212.363281 133.410156 L 225.105469 149.941406 L 147.679688 149.941406 Z M 302.214844 223.589844 L 316.550781 242.136719 L 240.71875 242.136719 L 240.71875 223.484375 Z M 131.644531 215.960938 L 60.164062 215.960938 L 72.910156 199.429688 L 131.644531 199.429688 Z M 131.644531 215.960938 " fill-opacity="1" fill-rule="nonzero"/></g><path fill="#231f20" d="M 293.824219 296.179688 C 292.796875 294.78125 291.449219 293.828125 289.789062 293.320312 C 290.445312 292.980469 291.046875 292.554688 291.582031 292.046875 C 292.121094 291.539062 292.578125 290.964844 292.953125 290.328125 C 293.332031 289.691406 293.609375 289.015625 293.792969 288.296875 C 293.976562 287.582031 294.058594 286.851562 294.035156 286.113281 C 294.042969 285.4375 293.953125 284.777344 293.769531 284.128906 C 293.589844 283.480469 293.316406 282.867188 292.960938 282.296875 C 292.601562 281.722656 292.171875 281.210938 291.667969 280.761719 C 291.164062 280.3125 290.609375 279.941406 290 279.648438 C 287.621094 278.332031 285.074219 277.695312 282.351562 277.742188 C 280.421875 277.714844 278.511719 277.890625 276.617188 278.273438 C 273.75 278.273438 272.371094 279.4375 272.371094 280.390625 C 272.320312 280.78125 272.320312 281.167969 272.371094 281.558594 C 272.332031 281.980469 272.332031 282.40625 272.371094 282.828125 C 272.371094 283.78125 272.371094 284.628906 272.371094 285.265625 C 272.371094 285.902344 272.371094 286.007812 272.371094 286.007812 C 273.984375 285.429688 275.648438 285.078125 277.363281 284.949219 C 280.335938 284.949219 281.820312 286.007812 281.820312 288.019531 C 281.855469 288.765625 281.605469 289.402344 281.078125 289.929688 C 280.597656 290.46875 279.996094 290.714844 279.273438 290.671875 L 276.617188 290.671875 C 275.769531 290.585938 274.917969 290.585938 274.070312 290.671875 C 273.871094 290.664062 273.691406 290.71875 273.53125 290.839844 C 273.375 290.957031 273.269531 291.113281 273.21875 291.304688 C 273.03125 292.964844 273.03125 294.625 273.21875 296.285156 C 273.21875 296.285156 273.21875 297.027344 274.386719 297.132812 L 279.273438 297.132812 C 282.460938 297.132812 284.050781 298.089844 284.050781 299.890625 C 284.050781 301.691406 282.351562 303.28125 278.953125 303.28125 C 277.601562 303.199219 276.292969 302.917969 275.023438 302.433594 L 272.6875 301.585938 C 272.503906 301.582031 272.339844 301.644531 272.195312 301.765625 C 272.054688 301.886719 271.972656 302.039062 271.945312 302.222656 C 271.945312 303.492188 271.308594 304.445312 271.203125 305.082031 C 271.09375 305.71875 270.351562 307.308594 270.140625 307.945312 C 270.140625 308.578125 271.945312 309.214844 275.664062 309.957031 C 277.785156 310.210938 279.910156 310.210938 282.035156 309.957031 C 283.511719 310.015625 284.96875 309.851562 286.398438 309.472656 C 287.828125 309.09375 289.171875 308.515625 290.425781 307.730469 C 291.054688 307.355469 291.628906 306.902344 292.136719 306.375 C 292.648438 305.847656 293.082031 305.265625 293.4375 304.621094 C 293.789062 303.980469 294.054688 303.300781 294.230469 302.589844 C 294.402344 301.875 294.480469 301.152344 294.460938 300.417969 C 294.652344 298.945312 294.4375 297.535156 293.824219 296.179688 Z M 293.824219 296.179688 " fill-opacity="1" fill-rule="nonzero"/><path fill="#231f20" d="M 188.253906 181.414062 L 185.386719 180.671875 C 185.386719 180.671875 185.386719 180.671875 184.640625 180.671875 C 183.035156 182.757812 181.015625 184.3125 178.589844 185.335938 C 178.40625 185.398438 178.257812 185.507812 178.140625 185.664062 C 178.023438 185.816406 177.960938 185.992188 177.949219 186.183594 L 177.949219 189.152344 C 177.949219 190.421875 177.949219 191.375 177.949219 192.011719 C 177.949219 192.648438 177.949219 193.070312 178.695312 193.070312 L 181.878906 193.070312 C 181.878906 193.070312 181.878906 193.070312 181.878906 193.917969 L 181.878906 202.292969 C 181.878906 203.882812 181.878906 208.226562 181.878906 215.433594 C 181.878906 216.066406 181.878906 216.386719 182.730469 216.386719 L 190.269531 216.386719 C 190.589844 216.515625 190.90625 216.515625 191.226562 216.386719 C 191.375 216.03125 191.375 215.679688 191.226562 215.324219 C 191.226562 213.207031 191.226562 209.921875 191.226562 205.578125 L 191.226562 195.828125 C 191.226562 189.257812 191.226562 185.230469 191.226562 183.535156 L 191.226562 183.003906 C 191.347656 182.792969 191.347656 182.582031 191.226562 182.367188 Z M 188.253906 181.414062 " fill-opacity="1" fill-rule="nonzero"/><path fill="#231f20" d="M 95.746094 265.980469 C 96.980469 265.144531 98.117188 264.199219 99.160156 263.136719 C 100.207031 262.074219 101.132812 260.921875 101.945312 259.675781 C 102.757812 258.429688 103.4375 257.113281 103.984375 255.730469 C 104.53125 254.347656 104.9375 252.925781 105.199219 251.460938 C 105.230469 250.738281 105.164062 250.027344 105 249.320312 C 104.839844 248.617188 104.582031 247.949219 104.238281 247.3125 C 103.890625 246.679688 103.464844 246.101562 102.960938 245.582031 C 102.457031 245.0625 101.894531 244.621094 101.269531 244.253906 C 98.769531 242.679688 96.042969 241.9375 93.089844 242.03125 C 90.976562 242.070312 88.886719 242.316406 86.824219 242.773438 C 84.746094 243.277344 82.800781 244.089844 80.984375 245.210938 C 80.984375 245.210938 80.984375 245.210938 80.984375 245.84375 C 81.0625 246.289062 81.207031 246.714844 81.40625 247.117188 C 81.722656 248.351562 81.722656 249.589844 81.40625 250.824219 C 81.40625 252.203125 81.40625 252.945312 82.257812 252.945312 L 83.742188 252.097656 C 84.632812 251.476562 85.589844 250.980469 86.613281 250.613281 C 87.941406 250.074219 89.320312 249.792969 90.753906 249.765625 C 91.960938 249.753906 92.988281 250.175781 93.832031 251.039062 C 94.285156 251.421875 94.628906 251.878906 94.871094 252.417969 C 95.113281 252.957031 95.226562 253.519531 95.214844 254.109375 C 94.679688 256.578125 93.511719 258.695312 91.710938 260.46875 C 90.097656 262.492188 88.328125 264.363281 86.398438 266.085938 C 85.355469 266.574219 84.257812 266.855469 83.105469 266.933594 C 81.40625 267.25 81.40625 267.570312 81.40625 268.3125 C 81.554688 269.347656 81.765625 270.371094 82.042969 271.382812 C 82.109375 272.265625 82.109375 273.148438 82.042969 274.03125 C 82.070312 274.21875 82.15625 274.371094 82.296875 274.492188 C 82.4375 274.613281 82.601562 274.671875 82.789062 274.667969 L 88.734375 274.667969 C 91.390625 274.667969 93.410156 274.667969 94.683594 274.667969 C 97.640625 274.53125 100.578125 274.707031 103.5 275.199219 L 105.941406 275.199219 C 106.578125 275.199219 106.792969 275.199219 106.792969 274.5625 C 106.792969 273.925781 106.792969 273.503906 106.792969 272.550781 L 106.792969 270.640625 C 106.746094 270.042969 106.746094 269.441406 106.792969 268.839844 C 106.832031 268.238281 106.832031 267.640625 106.792969 267.039062 C 106.792969 266.402344 106.792969 266.085938 106.046875 266.085938 Z M 95.746094 265.980469 " fill-opacity="1" fill-rule="nonzero"/><g clip-path="url(#id2)"><path fill="#231f20" d="M 186.449219 78.664062 L 175.460938 78.664062 C 172.019531 81.269531 167.746094 82.820312 163.101562 82.820312 C 158.902344 82.820312 155.019531 81.546875 151.761719 79.382812 L 151.761719 109.644531 C 151.761719 111.363281 153.167969 112.769531 154.886719 112.769531 L 207.820312 112.769531 C 209.539062 112.769531 210.945312 111.363281 210.945312 109.644531 L 210.945312 78.847656 C 207.542969 81.34375 203.359375 82.839844 198.828125 82.839844 C 194.164062 82.820312 189.875 81.269531 186.449219 78.664062 Z M 225.246094 78.089844 L 213.535156 84.855469 L 213.535156 103.636719 L 225.246094 110.402344 C 227.339844 111.605469 229.945312 110.105469 229.945312 107.683594 L 229.945312 80.808594 C 229.964844 78.386719 227.339844 76.886719 225.246094 78.089844 Z M 198.808594 44.539062 C 188.949219 44.539062 180.9375 52.523438 180.9375 62.375 C 180.9375 72.230469 188.929688 80.214844 198.792969 80.214844 C 208.652344 80.214844 216.644531 72.230469 216.644531 62.375 C 216.664062 52.523438 208.671875 44.539062 198.808594 44.539062 Z M 198.808594 70.066406 C 194.554688 70.066406 191.113281 66.628906 191.113281 62.375 C 191.113281 58.125 194.554688 54.6875 198.808594 54.6875 C 203.066406 54.6875 206.507812 58.125 206.507812 62.375 C 206.488281 66.628906 203.046875 70.066406 198.808594 70.066406 Z M 163.085938 44.539062 C 153.222656 44.539062 145.230469 52.523438 145.230469 62.375 C 145.230469 72.230469 153.222656 80.214844 163.085938 80.214844 C 172.945312 80.214844 180.9375 72.230469 180.9375 62.375 C 180.9375 52.523438 172.945312 44.539062 163.085938 44.539062 Z M 163.085938 70.066406 C 158.828125 70.066406 155.386719 66.628906 155.386719 62.375 C 155.40625 58.144531 158.847656 54.703125 163.085938 54.703125 C 167.320312 54.703125 170.78125 58.144531 170.78125 62.394531 C 170.78125 66.628906 167.339844 70.066406 163.085938 70.066406 Z M 163.085938 70.066406 " fill-opacity="1" fill-rule="nonzero"/></g></svg>