<svg xmlns="http://www.w3.org/2000/svg" xmlns:xlink="http://www.w3.org/1999/xlink" width="500" zoomAndPan="magnify" viewBox="0 0 375 374.999991" height="500" preserveAspectRatio="xMidYMid meet" version="1.0"><defs><clipPath id="id1"><path d="M 37.414062 37.414062 L 337.414062 37.414062 L 337.414062 337.414062 L 37.414062 337.414062 Z M 37.414062 37.414062 " clip-rule="nonzero"/></clipPath></defs><g clip-path="url(#id1)"><path fill="#ffffff" d="M 304.078125 37.414062 L 70.746094 37.414062 C 52.328125 37.414062 37.414062 52.328125 37.414062 70.746094 L 37.414062 304.078125 C 37.414062 322.496094 52.328125 337.414062 70.746094 337.414062 L 197.761719 337.414062 L 197.761719 221.394531 L 158.714844 221.394531 L 158.714844 175.980469 L 197.761719 175.980469 L 197.761719 142.5625 C 197.761719 103.828125 221.445312 82.714844 256.011719 82.714844 C 267.664062 82.679688 279.296875 83.28125 290.878906 84.464844 L 290.878906 124.964844 L 267.078125 124.964844 C 248.246094 124.964844 244.578125 133.863281 244.578125 146.996094 L 244.578125 175.914062 L 289.578125 175.914062 L 283.730469 221.328125 L 244.3125 221.328125 L 244.3125 337.414062 L 304.078125 337.414062 C 322.496094 337.414062 337.414062 322.496094 337.414062 304.078125 L 337.414062 70.746094 C 337.414062 52.328125 322.496094 37.414062 304.078125 37.414062 Z M 304.078125 37.414062 " fill-opacity="1" fill-rule="nonzero"/></g></svg>