<svg xmlns="http://www.w3.org/2000/svg" xmlns:xlink="http://www.w3.org/1999/xlink" width="500" zoomAndPan="magnify" viewBox="0 0 375 374.999991" height="500" preserveAspectRatio="xMidYMid meet" version="1.0"><defs><clipPath id="id1"><path d="M 28.050781 28.050781 L 346.800781 28.050781 L 346.800781 346.800781 L 28.050781 346.800781 Z M 28.050781 28.050781 " clip-rule="nonzero"/></clipPath></defs><g clip-path="url(#id1)"><path fill="#ffffff" d="M 346.800781 118.132812 C 346.800781 68.378906 306.46875 28.050781 256.71875 28.050781 L 118.132812 28.050781 C 68.378906 28.050781 28.050781 68.378906 28.050781 118.132812 L 28.050781 256.71875 C 28.050781 306.472656 68.378906 346.800781 118.132812 346.800781 L 256.71875 346.800781 C 306.46875 346.800781 346.800781 306.472656 346.800781 256.71875 Z M 187.425781 101.960938 C 140.257812 101.960938 101.960938 140.257812 101.960938 187.425781 C 101.960938 234.589844 140.257812 272.886719 187.425781 272.886719 C 234.59375 272.886719 272.886719 234.589844 272.886719 187.425781 C 272.886719 140.257812 234.59375 101.960938 187.425781 101.960938 Z M 187.425781 125.0625 C 221.84375 125.0625 249.789062 153.007812 249.789062 187.425781 C 249.789062 221.839844 221.84375 249.789062 187.425781 249.789062 C 153.003906 249.789062 125.058594 221.839844 125.058594 187.425781 C 125.058594 153.007812 153.003906 125.0625 187.425781 125.0625 Z M 279.816406 76.554688 C 290.015625 76.554688 298.292969 84.835938 298.292969 95.035156 C 298.292969 105.230469 290.015625 113.511719 279.816406 113.511719 C 269.617188 113.511719 261.335938 105.230469 261.335938 95.035156 C 261.335938 84.835938 269.617188 76.554688 279.816406 76.554688 Z M 279.816406 76.554688 " fill-opacity="1" fill-rule="evenodd"/></g></svg>