<svg xmlns="http://www.w3.org/2000/svg" xmlns:xlink="http://www.w3.org/1999/xlink" width="500" zoomAndPan="magnify" viewBox="0 0 375 374.999991" height="500" preserveAspectRatio="xMidYMid meet" version="1.0"><defs><clipPath id="id1"><path d="M 20.105469 13.722656 L 367.355469 13.722656 L 367.355469 360.972656 L 20.105469 360.972656 Z M 20.105469 13.722656 " clip-rule="nonzero"/></clipPath></defs><g clip-path="url(#id1)"><path fill="#ffffff" d="M 367.355469 308.199219 C 367.355469 337.304688 343.6875 360.972656 314.585938 360.972656 L 72.878906 360.972656 C 43.777344 360.972656 20.105469 337.304688 20.105469 308.199219 L 20.105469 66.496094 C 20.105469 37.390625 43.777344 13.722656 72.878906 13.722656 L 314.585938 13.722656 C 343.6875 13.722656 367.355469 37.390625 367.355469 66.496094 Z M 367.355469 308.199219 " fill-opacity="1" fill-rule="nonzero"/></g><path fill="#000000" d="M 316.820312 190.09375 C 316.820312 209.296875 316.820312 229.644531 312.53125 248.242188 C 309.511719 261.34375 298.824219 270.945312 285.902344 272.394531 C 255.410156 275.777344 224.496094 275.835938 193.761719 275.777344 C 162.96875 275.777344 132.175781 275.777344 101.621094 272.394531 C 88.761719 270.945312 78.011719 261.34375 74.992188 248.242188 C 70.707031 229.644531 70.707031 209.296875 70.707031 190.09375 C 70.707031 170.894531 70.765625 150.546875 74.992188 131.949219 C 78.011719 118.847656 88.699219 109.246094 101.621094 107.796875 C 132.175781 104.355469 163.027344 104.355469 193.761719 104.355469 C 224.496094 104.355469 255.351562 104.355469 285.902344 107.796875 C 298.765625 109.246094 309.511719 118.847656 312.53125 131.949219 C 316.820312 150.546875 316.820312 170.894531 316.820312 190.09375 Z M 316.820312 190.09375 " fill-opacity="1" fill-rule="nonzero"/><path fill="#ffffff" d="M 167.859375 144.328125 L 167.859375 236.285156 L 239.289062 190.277344 Z M 167.859375 144.328125 " fill-opacity="1" fill-rule="nonzero"/></svg>